<svg width="1080" height="1080" viewBox="0 0 1080 1080" fill="none" xmlns="http://www.w3.org/2000/svg">
<path fill-rule="evenodd" clip-rule="evenodd" d="M1027.4 0.000488281H1080V167.38L1027.45 167.397L1027.4 0.000488281ZM906.312 0.000488281H732.392C727.13 10.3105 722.97 20.521 719.911 30.8613C716.443 42.5786 714.72 55.4351 714.72 69.75C714.727 86.1836 717.877 100.658 724.185 113.348C730.338 126.038 738.692 136.609 748.932 145.229C759.177 153.688 770.992 160.189 784.543 164.579C798.094 168.969 811.955 171.24 826.294 171.24H826.307C841.117 171.233 855.14 168.955 868.529 164.718C881.919 160.321 893.417 153.973 903.501 145.347C913.424 136.72 921.3 126.142 927.124 113.452C933.108 100.762 936.09 86.1138 936.09 69.8472C936.083 53.4136 933.404 39.585 928.201 28.2012C922.997 16.8101 916.063 7.7041 907.554 1.03662C907.143 0.686523 906.729 0.34082 906.312 0.000488281ZM687.445 0.000488281H604.101L604.143 167.397L687.49 167.37L687.445 0.000488281ZM483.009 0.000488281H309.089C303.828 10.3105 299.667 20.521 296.608 30.8613C293.141 42.5786 291.417 55.4351 291.417 69.75C291.424 86.1836 294.575 100.658 300.882 113.348C307.035 126.038 315.39 136.609 325.629 145.229C335.875 153.688 347.689 160.189 361.24 164.579C374.792 168.969 388.652 171.24 402.991 171.24H403.004C417.814 171.233 431.837 168.955 445.227 164.718C458.616 160.321 470.114 153.973 480.199 145.347C490.122 136.72 497.998 126.142 503.821 113.452C509.805 100.762 512.788 86.1138 512.788 69.8472C512.781 53.4136 510.102 39.585 504.898 28.2012C499.694 16.8101 492.76 7.7041 484.251 1.03662C483.84 0.686523 483.426 0.34082 483.009 0.000488281ZM264.142 0.000488281H180.798L180.84 167.397L264.187 167.37L264.142 0.000488281ZM59.7056 0.000488281H0V48.6011C0.103271 48.6948 0.205811 48.7896 0.307617 48.8853C5.51123 53.7612 8.19043 60.7554 8.19043 69.8682C8.19727 76.9902 5.51465 83.1929 0 88.4683V169.769C7.50244 168.67 14.8022 166.971 21.9233 164.718C35.313 160.321 46.811 153.973 56.8955 145.347C66.8184 136.72 74.6943 126.142 80.5176 113.452C86.502 100.762 89.4844 86.1138 89.4844 69.8472C89.4775 53.4136 86.7983 39.585 81.5947 28.2012C76.3906 16.8101 69.457 7.7041 60.9478 1.03662C60.5371 0.686523 60.123 0.34082 59.7056 0.000488281ZM0 230.52V304.422L48.7837 230.506L0 230.52ZM0 320.335V387.729C0.103271 387.822 0.205811 387.917 0.307617 388.013C5.51123 392.889 8.19092 399.883 8.19092 408.996C8.19727 416.119 5.51465 422.321 0 427.596V508.896C7.50244 507.798 14.8027 506.099 21.9238 503.845C35.3135 499.449 46.8115 493.101 56.8955 484.474C66.8184 475.848 74.6948 465.269 80.5176 452.58C86.5024 439.89 89.4844 425.241 89.4844 408.975C89.4775 392.541 86.7983 378.712 81.5947 367.329C76.3911 355.938 69.457 346.832 60.9482 340.164C52.749 333.169 43.1426 328.134 32.4253 325.043C21.7085 321.953 10.8364 320.334 0.125977 320.334C0.0849609 320.334 0.0429688 320.335 0 320.335ZM0 569.646V643.548L48.7837 569.632L0 569.646ZM0 659.461V726.854C0.103271 726.948 0.205811 727.043 0.307617 727.139C5.51123 732.015 8.19092 739.009 8.19092 748.122C8.19727 755.245 5.51465 761.447 0 766.722V848.022C7.50244 846.924 14.8027 845.225 21.9238 842.971C35.3135 838.575 46.8115 832.227 56.8955 823.6C66.8184 814.974 74.6948 804.395 80.5176 791.706C86.5024 779.016 89.4844 764.367 89.4844 748.101C89.4775 731.667 86.7983 717.838 81.5947 706.455C76.3911 695.063 69.457 685.958 60.9482 679.29C52.749 672.295 43.1426 667.26 32.4253 664.169C21.7085 661.079 10.8364 659.46 0.125977 659.46C0.0849609 659.46 0.0429688 659.461 0 659.461ZM0 908.772V982.675L48.7837 908.758L0 908.772ZM0 998.587V1065.98C0.103271 1066.07 0.205811 1066.17 0.307617 1066.27C4.03418 1069.76 6.46582 1074.34 7.54639 1080H89.3013C88.6162 1066.7 86.0171 1055.26 81.5947 1045.58C76.3906 1034.19 69.457 1025.08 60.9478 1018.42C52.7485 1011.42 43.1421 1006.39 32.4253 1003.3C21.708 1000.21 10.8359 998.586 0.125732 998.586C0.0847168 998.586 0.0429688 998.587 0 998.587ZM180.813 1080H264.159L264.113 908.813L209.289 908.834L143.909 932.602L143.929 1007.93L180.793 997.023L180.813 1080ZM291.565 1080H375.115C376.214 1074.34 378.704 1069.77 382.647 1066.28C388.161 1061.4 394.933 1058.95 402.971 1058.95C411.48 1058.94 418.407 1061.38 423.611 1066.27C427.337 1069.76 429.769 1074.34 430.85 1080H512.604C511.919 1066.7 509.32 1055.26 504.898 1045.58C499.694 1034.19 492.76 1025.08 484.251 1018.42C476.052 1011.42 466.445 1006.39 455.729 1003.3C445.011 1000.21 434.139 998.586 423.429 998.586C422.164 998.586 419.962 998.913 416.966 999.726C414.132 1000.21 412.241 1000.54 411.298 1000.86L472.087 908.758L376.609 908.786L363.058 930.429C352.354 947.675 342.586 962.81 333.768 975.992C324.949 989.175 317.55 1001.54 311.25 1013.26C304.955 1024.97 300.075 1036.52 296.608 1048.24C293.726 1057.98 292.049 1068.5 291.565 1080ZM604.116 1080H687.461L687.416 908.813L632.592 908.834L567.212 932.602L567.232 1007.93L604.096 997.023L604.116 1080ZM714.868 1080H798.418C799.517 1074.34 802.007 1069.77 805.951 1066.28C811.464 1061.4 818.236 1058.95 826.274 1058.95C834.783 1058.94 841.71 1061.38 846.914 1066.27C850.641 1069.76 853.072 1074.34 854.153 1080H935.908C935.223 1066.7 932.624 1055.26 928.201 1045.58C922.997 1034.19 916.063 1025.08 907.554 1018.42C899.355 1011.42 889.749 1006.39 879.032 1003.3C868.314 1000.21 857.442 998.586 846.732 998.586C845.467 998.586 843.265 998.913 840.27 999.726C837.436 1000.21 835.544 1000.54 834.602 1000.86L895.39 908.758L799.912 908.786L786.361 930.429C775.657 947.675 765.89 962.81 757.071 975.992C748.252 989.175 740.854 1001.54 734.553 1013.26C728.258 1024.97 723.378 1036.52 719.911 1048.24C717.029 1057.98 715.353 1068.5 714.868 1080ZM1027.42 1080H1080V908.825L1055.9 908.834L990.515 932.602L990.535 1007.93L1027.4 997.023L1027.42 1080ZM1080 845.634V569.698L1055.9 569.708L990.515 593.476L990.535 668.808L1027.4 657.896L1027.45 845.651L1080 845.634ZM1080 506.508V230.572L1055.9 230.582L990.515 254.35L990.535 329.682L1027.4 318.771L1027.45 506.525L1080 506.508ZM846.139 88.9062C840.464 94.2749 833.847 97.0464 826.287 97.0464C818.256 97.0532 811.477 94.6152 805.964 89.7324C800.443 84.5303 797.764 77.8623 797.764 69.8887C797.764 60.7764 800.437 53.7817 805.95 48.8989C811.463 44.0161 818.236 41.5713 826.273 41.5713C834.783 41.5645 841.71 44.0024 846.914 48.8853C852.117 53.7612 854.796 60.7554 854.796 69.8682C854.803 77.1885 851.969 83.5371 846.139 88.9062ZM784.543 503.707C798.094 508.096 811.955 510.367 826.294 510.367H826.307C841.117 510.36 855.14 508.082 868.529 503.845C881.919 499.449 893.417 493.101 903.501 484.474C913.424 475.848 921.3 465.269 927.124 452.58C933.108 439.89 936.09 425.241 936.09 408.975C936.083 392.541 933.404 378.712 928.201 367.329C922.997 355.938 916.063 346.832 907.554 340.164C899.354 333.169 889.748 328.134 879.031 325.043C868.314 321.953 857.442 320.334 846.732 320.334C845.466 320.334 843.265 320.661 840.269 321.473C838.796 321.726 837.577 321.936 836.614 322.125C835.725 322.299 835.054 322.456 834.601 322.612L895.39 230.506L799.912 230.534L786.36 252.176C775.657 269.422 765.889 284.557 757.07 297.74C748.251 310.923 740.853 323.286 734.552 335.003C728.258 346.721 723.377 358.271 719.911 369.989C716.443 381.706 714.72 394.562 714.72 408.877C714.727 425.311 717.877 439.786 724.185 452.475C730.338 465.165 738.692 475.736 748.932 484.356C759.177 492.815 770.992 499.317 784.543 503.707ZM846.139 428.034C840.464 433.402 833.847 436.174 826.287 436.174C818.256 436.181 811.477 433.743 805.964 428.86C800.443 423.658 797.764 416.99 797.764 409.016C797.764 399.903 800.437 392.909 805.95 388.026C811.463 383.144 818.236 380.699 826.273 380.699C834.783 380.692 841.71 383.13 846.914 388.013C852.117 392.889 854.796 399.883 854.796 408.996C854.803 416.316 851.969 422.665 846.139 428.034ZM632.592 230.582L567.212 254.35L567.232 329.682L604.096 318.771L604.143 506.525L687.49 506.498L687.416 230.561L632.592 230.582ZM784.543 842.833C798.094 847.222 811.955 849.493 826.294 849.493H826.307C841.117 849.486 855.14 847.208 868.529 842.971C881.919 838.575 893.417 832.227 903.501 823.6C913.424 814.974 921.3 804.395 927.124 791.706C933.108 779.016 936.09 764.367 936.09 748.101C936.083 731.667 933.404 717.838 928.201 706.455C922.997 695.063 916.063 685.958 907.554 679.29C899.354 672.295 889.748 667.26 879.031 664.169C868.314 661.079 857.442 659.46 846.732 659.46C845.466 659.46 843.265 659.787 840.269 660.599C838.697 660.869 837.415 661.089 836.424 661.288L836.12 661.35L835.957 661.384C835.387 661.507 834.935 661.623 834.601 661.738L895.39 569.632L799.912 569.66L786.36 591.302C775.657 608.548 765.889 623.683 757.07 636.866C748.251 650.049 740.853 662.412 734.552 674.129C728.258 685.847 723.377 697.397 719.911 709.115C716.443 720.832 714.72 733.688 714.72 748.003C714.727 764.437 717.877 778.912 724.185 791.601C730.338 804.291 738.692 814.862 748.932 823.482C759.177 831.941 770.992 838.443 784.543 842.833ZM846.139 767.16C840.464 772.528 833.847 775.3 826.287 775.3C818.256 775.307 811.477 772.869 805.964 767.986C800.443 762.784 797.764 756.116 797.764 748.142C797.764 739.029 800.437 732.035 805.95 727.152C811.463 722.27 818.236 719.825 826.273 719.825C834.783 719.818 841.71 722.256 846.914 727.139C852.117 732.015 854.796 739.009 854.796 748.122C854.803 755.442 851.969 761.791 846.139 767.16ZM632.592 569.708L567.212 593.476L567.232 668.808L604.096 657.896L604.143 845.651L687.49 845.624L687.416 569.687L632.592 569.708ZM422.836 88.9062C417.162 94.2749 410.544 97.0464 402.984 97.0464C394.953 97.0532 388.174 94.6152 382.661 89.7324C377.141 84.5303 374.461 77.8623 374.461 69.8887C374.461 60.7764 377.134 53.7817 382.647 48.8989C388.161 44.0161 394.933 41.5713 402.971 41.5713C411.48 41.5645 418.407 44.0024 423.611 48.8853C428.814 53.7612 431.494 60.7554 431.494 69.8682C431.5 77.1885 428.667 83.5371 422.836 88.9062ZM361.24 503.707C374.792 508.096 388.652 510.367 402.991 510.367H403.004C417.814 510.36 431.837 508.082 445.227 503.845C458.616 499.449 470.114 493.101 480.199 484.474C490.122 475.848 497.998 465.269 503.821 452.58C509.805 439.89 512.788 425.241 512.788 408.975C512.781 392.541 510.102 378.712 504.898 367.329C499.694 355.938 492.76 346.832 484.251 340.164C476.052 333.169 466.445 328.134 455.729 325.043C445.011 321.953 434.139 320.334 423.429 320.334C422.164 320.334 419.962 320.661 416.966 321.473C415.506 321.724 414.295 321.932 413.336 322.12C412.685 322.247 412.149 322.365 411.73 322.48C411.569 322.524 411.425 322.568 411.298 322.612L472.087 230.506L376.609 230.534L363.058 252.176C352.354 269.422 342.586 284.557 333.768 297.74C324.949 310.923 317.55 323.286 311.25 335.003C304.955 346.721 300.075 358.271 296.608 369.989C293.141 381.706 291.417 394.562 291.417 408.877C291.424 425.311 294.575 439.786 300.882 452.475C307.035 465.165 315.39 475.736 325.629 484.356C335.875 492.815 347.689 499.317 361.24 503.707ZM422.836 428.034C417.162 433.402 410.544 436.174 402.984 436.174C394.953 436.181 388.174 433.743 382.661 428.86C377.141 423.658 374.461 416.99 374.461 409.016C374.461 399.903 377.134 392.909 382.647 388.026C388.161 383.144 394.933 380.699 402.971 380.699C411.48 380.692 418.407 383.13 423.611 388.013C428.814 392.889 431.494 399.883 431.494 408.996C431.5 416.316 428.667 422.665 422.836 428.034ZM209.289 230.582L143.909 254.35L143.929 329.682L180.793 318.771L180.84 506.525L264.187 506.498L264.113 230.561L209.289 230.582ZM361.24 842.833C374.792 847.222 388.652 849.493 402.991 849.493H403.004C417.814 849.486 431.837 847.208 445.227 842.971C458.616 838.575 470.114 832.227 480.199 823.6C490.122 814.974 497.998 804.395 503.821 791.706C509.805 779.016 512.788 764.367 512.788 748.101C512.781 731.667 510.102 717.838 504.898 706.455C499.694 695.063 492.76 685.958 484.251 679.29C476.052 672.295 466.445 667.26 455.729 664.169C445.011 661.079 434.139 659.46 423.429 659.46C422.164 659.46 419.962 659.787 416.966 660.599C414.132 661.085 412.241 661.412 411.298 661.738L472.087 569.632L376.609 569.66L363.058 591.302C352.354 608.548 342.586 623.683 333.768 636.866C324.949 650.049 317.55 662.412 311.25 674.129C304.955 685.847 300.075 697.397 296.608 709.115C293.141 720.832 291.417 733.688 291.417 748.003C291.424 764.437 294.575 778.912 300.882 791.601C307.035 804.291 315.39 814.862 325.629 823.482C335.875 831.941 347.689 838.443 361.24 842.833ZM422.836 767.16C417.162 772.528 410.544 775.3 402.984 775.3C394.953 775.307 388.174 772.869 382.661 767.986C377.141 762.784 374.461 756.116 374.461 748.142C374.461 739.029 377.134 732.035 382.647 727.152C388.161 722.27 394.933 719.825 402.971 719.825C411.48 719.818 418.407 722.256 423.611 727.139C428.814 732.015 431.494 739.009 431.494 748.122C431.5 755.442 428.667 761.791 422.836 767.16ZM209.289 569.708L143.909 593.476L143.929 668.808L180.793 657.896L180.84 845.651L264.187 845.624L264.113 569.687L209.289 569.708Z" fill="#C4C4C4"/>
</svg>
